# xmcd
# 
# Track frame offsets:
#     150
#     12595
#     23130
#     35068
#     46837
#     58642
#     72361
#     87277
#     100416
#     114813
#     128877
#     146585
#     160065
#     176805
#     191658
#     212559
#     225815
#     239647
#     259190
#     273642
#     283924
# 
# Disc length: 3950
# 
# Revision: 0
# Processed by: cddbd v1.5.2PL0 Copyright (c) Steve Scherf et al.
# Submitted via: BonkEnc v1.0.8
# 
DISCID=330f6c15
DTITLE=Glen Campbell - Icons [CD 2)
DYEAR=2006
DGENRE=Country
TTITLE0=By The Time I Get To Phoenix
TTITLE1=Time in A Bottle
TTITLE2=The Impossible Dream
TTITLE3=Blue Sky Shining
TTITLE4=You Don't Have To Say You Love Me
TTITLE5=Make It Easy On Yourself
TTITLE6=Only Love Can Break A Heart
TTITLE7=Pretend
TTITLE8=Learning The Blues
TTITLE9=Didn't We
TTITLE10=Colleen
TTITLE11=Rhinestone Cowboy
TTITLE12=Feelings
TTITLE13=All The Way
TTITLE14=Bridge Over Troubled Water
TTITLE15=Young At Heart
TTITLE16=Without You
TTITLE17=You've Lost That Lovin' Feeling
TTITLE18=And i Love You So
TTITLE19=What A Wonderful World
TTITLE20=You'll Never Walk Alone
EXTD=
EXTT0=
EXTT1=
EXTT2=
EXTT3=
EXTT4=
EXTT5=
EXTT6=
EXTT7=
EXTT8=
EXTT9=
EXTT10=
EXTT11=
EXTT12=
EXTT13=
EXTT14=
EXTT15=
EXTT16=
EXTT17=
EXTT18=
EXTT19=
EXTT20=
PLAYORDER=
